# Blender v2.82 (sub 7) OBJ File: 'untitled.blend'
# www.blender.org
mtllib bullet.mtl
o Cylinder.001
v -0.000000 0.608490 -0.459646
v 0.324174 0.608490 -0.325019
v 0.458452 0.608490 0.000000
v 0.324174 0.608490 0.325019
v -0.000000 0.608490 0.459646
v -0.324174 0.608490 0.325019
v -0.458452 0.608490 -0.000000
v -0.324174 0.608490 -0.325019
v -0.000000 0.829973 -0.459646
v 0.324174 0.829973 -0.325019
v 0.458452 0.829973 0.000000
v 0.324174 0.829973 0.325019
v -0.000000 0.829973 0.459646
v -0.324174 0.829973 0.325019
v -0.458452 0.829973 -0.000000
v -0.324174 0.829973 -0.325019
v -0.000000 1.131995 -0.393985
v 0.277866 1.131995 -0.278590
v 0.392962 1.131995 0.000000
v 0.277866 1.131995 0.278590
v -0.000000 1.131995 0.393985
v -0.277866 1.131995 0.278590
v -0.392962 1.131995 0.000000
v -0.277866 1.131995 -0.278590
v -0.000000 1.319920 -0.312439
v 0.220354 1.319920 -0.220928
v 0.311628 1.319920 0.000000
v 0.220354 1.319920 0.220928
v -0.000000 1.319920 0.312439
v -0.220354 1.319920 0.220928
v -0.311628 1.319920 0.000000
v -0.220354 1.319920 -0.220928
v -0.000000 1.433204 -0.257077
v 0.181308 1.433204 -0.181781
v 0.256409 1.433204 0.000000
v 0.181308 1.433204 0.181781
v -0.000000 1.433204 0.257077
v -0.181308 1.433204 0.181781
v -0.256409 1.433204 0.000000
v -0.181308 1.433204 -0.181781
v -0.000000 1.565369 -0.116819
v 0.082389 1.565369 -0.082604
v 0.116516 1.565369 0.000000
v 0.082389 1.565369 0.082604
v -0.000000 1.565369 0.116819
v -0.082389 1.565369 0.082604
v -0.116516 1.565369 0.000000
v -0.082389 1.565369 -0.082604
v -0.000000 1.584249 0.000000
v -0.000000 -1.000000 -0.500364
v -0.000000 0.608490 -0.500364
v 0.352892 -1.000000 -0.353811
v 0.352892 0.608490 -0.353811
v 0.499064 -1.000000 0.000000
v 0.499064 0.608490 0.000000
v 0.352892 -1.000000 0.353811
v 0.352892 0.608490 0.353811
v -0.000000 -1.000000 0.500364
v -0.000000 0.608490 0.500364
v -0.352892 -1.000000 0.353811
v -0.352892 0.608490 0.353811
v -0.499064 -1.000000 -0.000000
v -0.499064 0.608490 -0.000000
v -0.352892 -1.000000 -0.353811
v -0.352892 0.608490 -0.353811
v -0.000000 -1.095081 -0.421721
v 0.297427 -1.095081 -0.298202
v 0.420625 -1.095081 0.000000
v 0.297427 -1.095081 0.298202
v -0.000000 -1.095081 0.421721
v -0.297427 -1.095081 0.298202
v -0.420625 -1.095081 -0.000000
v -0.297427 -1.095081 -0.298202
v -0.000000 -1.206941 -0.421721
v 0.297427 -1.206941 -0.298202
v 0.420625 -1.206941 0.000000
v 0.297427 -1.206941 0.298202
v -0.000000 -1.206941 0.421721
v -0.297427 -1.206941 0.298202
v -0.420625 -1.206941 -0.000000
v -0.297427 -1.206941 -0.298202
v -0.000000 -1.206941 -0.495684
v 0.349591 -1.206941 -0.350501
v 0.494396 -1.206941 0.000000
v 0.349591 -1.206941 0.350501
v -0.000000 -1.206941 0.495684
v -0.349591 -1.206941 0.350501
v -0.494396 -1.206941 -0.000000
v -0.349591 -1.206941 -0.350501
v -0.000000 -1.313208 -0.495684
v 0.349591 -1.313208 -0.350501
v 0.494396 -1.313208 0.000000
v 0.349591 -1.313208 0.350501
v -0.000000 -1.313208 0.495684
v -0.349591 -1.313208 0.350501
v -0.494396 -1.313208 -0.000000
v -0.349591 -1.313208 -0.350501
v -0.000000 0.608490 -0.459646
v 0.324174 0.608490 -0.325019
v 0.458452 0.608490 0.000000
v 0.324174 0.608490 0.325019
v -0.000000 0.608490 0.459646
v -0.324174 0.608490 0.325019
v -0.458452 0.608490 -0.000000
v -0.324174 0.608490 -0.325019
v -0.000000 -1.313208 -0.000000
vt 0.390866 0.033410
vt 0.492251 0.075059
vt 0.464354 0.138866
vt 0.371242 0.095054
vt 0.594330 0.011587
vt 0.696690 0.011587
vt 0.690273 0.073180
vt 0.599609 0.072828
vt 0.799428 0.033412
vt 0.900817 0.075064
vt 0.872918 0.138873
vt 0.779804 0.095057
vt 0.185768 0.011585
vt 0.288129 0.011585
vt 0.281712 0.073178
vt 0.191047 0.072827
vt 0.492601 0.026489
vt 0.501987 0.090560
vt 0.084035 0.026488
vt 0.093423 0.090562
vt 0.608542 0.151352
vt 0.531151 0.177324
vt 0.750834 0.169998
vt 0.680987 0.148537
vt 0.199982 0.151353
vt 0.122590 0.177329
vt 0.411198 0.216538
vt 0.342276 0.169994
vt 0.819757 0.216546
vt 0.272428 0.148535
vt 0.266177 0.196233
vt 0.210423 0.200270
vt 0.319129 0.214917
vt 0.618980 0.200268
vt 0.561739 0.228156
vt 0.727685 0.214921
vt 0.674734 0.196234
vt 0.153181 0.228162
vt 0.367208 0.257692
vt 0.775764 0.257700
vt 0.303027 0.240779
vt 0.262405 0.224227
vt 0.627517 0.229292
vt 0.584482 0.256623
vt 0.711582 0.240782
vt 0.670960 0.224228
vt 0.218962 0.229294
vt 0.175927 0.256629
vt 0.337263 0.279053
vt 0.745816 0.279060
vt 0.694627 0.296108
vt 0.683734 0.275694
vt 0.256583 0.266715
vt 0.236273 0.270308
vt 0.275183 0.275692
vt 0.644825 0.270307
vt 0.628813 0.286906
vt 0.665135 0.266715
vt 0.220262 0.286909
vt 0.286077 0.296104
vt 0.252423 0.296673
vt 0.660972 0.296673
vt 0.287116 0.716154
vt 0.295739 0.341191
vt 0.393547 0.334619
vt 0.389466 0.725532
vt 0.489088 0.305451
vt 0.499825 0.748958
vt 0.500175 0.751122
vt 0.508030 0.306319
vt 0.612549 0.335926
vt 0.602823 0.728237
vt 0.711879 0.341191
vt 0.703256 0.716154
vt 0.809687 0.334619
vt 0.805606 0.725532
vt 0.905229 0.305451
vt 0.915965 0.748959
vt 0.084035 0.751123
vt 0.091889 0.306319
vt 0.196409 0.335926
vt 0.186683 0.728237
vt 0.609210 0.761061
vt 0.515328 0.781767
vt 0.899086 0.781775
vt 0.799887 0.759503
vt 0.703605 0.751745
vt 0.193070 0.761061
vt 0.099188 0.781767
vt 0.482946 0.781775
vt 0.383747 0.759503
vt 0.287465 0.751745
vt 0.892075 0.813861
vt 0.793094 0.792104
vt 0.703145 0.780470
vt 0.614301 0.793100
vt 0.475935 0.813860
vt 0.376955 0.792104
vt 0.198161 0.793100
vt 0.105139 0.813171
vt 0.521279 0.813170
vt 0.287005 0.780470
vt 0.374109 0.809714
vt 0.287066 0.800755
vt 0.200956 0.810213
vt 0.896242 0.834927
vt 0.790249 0.809715
vt 0.703206 0.800755
vt 0.617096 0.810213
vt 0.480103 0.834926
vt 0.101012 0.833058
vt 0.517152 0.833057
vt 0.207930 0.835571
vt 0.108908 0.869499
vt 0.785210 0.836090
vt 0.704345 0.825895
vt 0.624069 0.835571
vt 0.525047 0.869499
vt 0.369071 0.836090
vt 0.288206 0.825895
vt 0.886346 0.871984
vt 0.470207 0.871984
vt 0.515434 0.297024
vt 0.614303 0.325546
vt 0.807885 0.324734
vt 0.898285 0.297024
vt 0.295676 0.329594
vt 0.391744 0.324734
vt 0.711817 0.329595
vt 0.099293 0.297024
vt 0.198163 0.325546
vt 0.482144 0.297024
vt 0.703794 0.986251
vt 0.287654 0.986251
vn -0.7078 0.0000 -0.7064
vn -1.0000 0.0000 0.0000
vn -0.9946 0.1039 0.0000
vn -0.7039 0.1040 -0.7027
vn -0.7078 0.0000 0.7064
vn 0.0000 0.0000 1.0000
vn 0.0000 0.1042 0.9945
vn -0.7039 0.1040 0.7027
vn 0.7078 0.0000 0.7064
vn 1.0000 0.0000 0.0000
vn 0.9946 0.1039 0.0000
vn 0.7039 0.1040 0.7027
vn 0.7078 0.0000 -0.7064
vn 0.0000 0.0000 -1.0000
vn 0.0000 0.1042 -0.9945
vn 0.7039 0.1040 -0.7027
vn -0.6752 0.2996 0.6740
vn -0.9541 0.2993 0.0000
vn 0.6752 0.2996 0.6740
vn 0.0000 0.2999 0.9539
vn 0.6752 0.2996 -0.6740
vn 0.9541 0.2993 0.0000
vn -0.6752 0.2996 -0.6740
vn 0.0000 0.2999 -0.9539
vn 0.0000 0.4166 -0.9091
vn 0.6436 0.4161 -0.6423
vn -0.6436 0.4161 -0.6423
vn -0.6436 0.4161 0.6423
vn -0.9095 0.4157 0.0000
vn 0.6436 0.4161 0.6423
vn 0.0000 0.4166 0.9091
vn 0.9095 0.4157 0.0000
vn -0.5803 0.5724 -0.5792
vn 0.0000 0.5728 -0.8197
vn -0.5803 0.5724 0.5792
vn -0.8202 0.5720 0.0000
vn 0.5803 0.5724 0.5792
vn 0.0000 0.5728 0.8197
vn 0.5803 0.5724 -0.5792
vn 0.8202 0.5720 0.0000
vn 0.4977 0.8673 0.0000
vn 0.3522 0.8675 0.3513
vn 0.0000 0.8676 -0.4971
vn 0.3522 0.8675 -0.3513
vn -0.3522 0.8675 -0.3513
vn -0.3522 0.8675 0.3513
vn -0.4977 0.8673 0.0000
vn 0.0000 0.8676 0.4971
vn 0.0000 1.0000 0.0000
vn 0.0000 -0.3149 -0.9491
vn 0.0000 0.6301 -0.7765
vn 0.5495 0.6302 -0.5485
vn 0.6717 -0.3146 -0.6706
vn 0.7762 0.6304 0.0000
vn 0.9492 -0.3144 0.0000
vn 0.5495 0.6302 0.5485
vn 0.6717 -0.3146 0.6706
vn 0.0000 0.6301 0.7765
vn 0.0000 -0.3149 0.9491
vn -0.5495 0.6302 0.5485
vn -0.6717 -0.3146 0.6706
vn -0.7762 0.6304 0.0000
vn -0.9492 -0.3144 0.0000
vn -0.5495 0.6302 -0.5485
vn -0.6717 -0.3146 -0.6706
vn 0.6582 -0.3679 0.6567
vn 0.9300 -0.3675 0.0000
vn -0.9300 -0.3675 0.0000
vn -0.6582 -0.3679 0.6567
vn 0.0000 -0.3684 0.9297
vn -0.6582 -0.3679 -0.6567
vn 0.6582 -0.3679 -0.6567
vn 0.0000 -0.3684 -0.9297
vn -0.5947 0.8039 0.0000
vn -0.4207 0.8042 0.4199
vn 0.0000 0.8044 0.5940
vn 0.4207 0.8042 0.4199
vn 0.5947 0.8039 0.0000
vn 0.4207 0.8042 -0.4199
vn -0.4207 0.8042 -0.4199
vn 0.0000 0.8044 -0.5940
vn -0.5495 -0.6302 -0.5485
vn -0.7762 -0.6304 0.0000
vn -0.5495 -0.6302 0.5485
vn 0.0000 -0.6301 0.7765
vn 0.5495 -0.6302 0.5485
vn 0.7762 -0.6304 0.0000
vn 0.5495 -0.6302 -0.5485
vn 0.0000 -0.6301 -0.7765
vn 0.0000 -1.0000 0.0000
g Cylinder.001_Cylinder.001_Material
usemtl Material
s 1
f 8/1/1 7/2/2 15/3/3 16/4/4
f 6/5/5 5/6/6 13/7/7 14/8/8
f 4/9/9 3/10/10 11/11/11 12/12/12
f 2/13/13 1/14/14 9/15/15 10/16/16
f 1/14/14 8/1/1 16/4/4 9/15/15
f 7/17/2 6/5/5 14/8/8 15/18/3
f 5/6/6 4/9/9 12/12/12 13/7/7
f 3/19/10 2/13/13 10/16/16 11/20/11
f 15/18/3 14/8/8 22/21/17 23/22/18
f 13/7/7 12/12/12 20/23/19 21/24/20
f 11/20/11 10/16/16 18/25/21 19/26/22
f 16/4/4 15/3/3 23/27/18 24/28/23
f 14/8/8 13/7/7 21/24/20 22/21/17
f 12/12/12 11/11/11 19/29/22 20/23/19
f 10/16/16 9/15/15 17/30/24 18/25/21
f 9/15/15 16/4/4 24/28/23 17/30/24
f 18/25/21 17/30/24 25/31/25 26/32/26
f 17/30/24 24/28/23 32/33/27 25/31/25
f 23/22/18 22/21/17 30/34/28 31/35/29
f 21/24/20 20/23/19 28/36/30 29/37/31
f 19/26/22 18/25/21 26/32/26 27/38/32
f 24/28/23 23/27/18 31/39/29 32/33/27
f 22/21/17 21/24/20 29/37/31 30/34/28
f 20/23/19 19/29/22 27/40/32 28/36/30
f 25/31/25 32/33/27 40/41/33 33/42/34
f 31/35/29 30/34/28 38/43/35 39/44/36
f 29/37/31 28/36/30 36/45/37 37/46/38
f 27/38/32 26/32/26 34/47/39 35/48/40
f 32/33/27 31/39/29 39/49/36 40/41/33
f 30/34/28 29/37/31 37/46/38 38/43/35
f 28/36/30 27/40/32 35/50/40 36/45/37
f 26/32/26 25/31/25 33/42/34 34/47/39
f 36/45/37 35/50/40 43/51/41 44/52/42
f 34/47/39 33/42/34 41/53/43 42/54/44
f 33/42/34 40/41/33 48/55/45 41/53/43
f 39/44/36 38/43/35 46/56/46 47/57/47
f 37/46/38 36/45/37 44/52/42 45/58/48
f 35/48/40 34/47/39 42/54/44 43/59/41
f 40/41/33 39/49/36 47/60/47 48/55/45
f 38/43/35 37/46/38 45/58/48 46/56/46
f 48/55/45 47/60/47 49/61/49
f 46/56/46 45/58/48 49/62/49
f 44/52/42 43/51/41 49/62/49
f 42/54/44 41/53/43 49/61/49
f 41/53/43 48/55/45 49/61/49
f 47/57/47 46/56/46 49/62/49
f 45/58/48 44/52/42 49/62/49
f 43/59/41 42/54/44 49/61/49
f 50/63/50 51/64/51 53/65/52 52/66/53
f 52/66/53 53/65/52 55/67/54 54/68/55
f 54/69/55 55/70/54 57/71/56 56/72/57
f 56/72/57 57/71/56 59/73/58 58/74/59
f 58/74/59 59/73/58 61/75/60 60/76/61
f 60/76/61 61/75/60 63/77/62 62/78/63
f 62/79/63 63/80/62 65/81/64 64/82/65
f 64/82/65 65/81/64 51/64/51 50/63/50
f 54/69/55 56/72/57 69/83/66 68/84/67
f 60/76/61 62/78/63 72/85/68 71/86/69
f 56/72/57 58/74/59 70/87/70 69/83/66
f 62/79/63 64/82/65 73/88/71 72/89/68
f 52/66/53 54/68/55 68/90/67 67/91/72
f 58/74/59 60/76/61 71/86/69 70/87/70
f 64/82/65 50/63/50 66/92/73 73/88/71
f 50/63/50 52/66/53 67/91/72 66/92/73
f 71/86/69 72/85/68 80/93/74 79/94/75
f 69/83/66 70/87/70 78/95/76 77/96/77
f 67/91/72 68/90/67 76/97/78 75/98/79
f 72/89/68 73/88/71 81/99/80 80/100/74
f 70/87/70 71/86/69 79/94/75 78/95/76
f 68/84/67 69/83/66 77/96/77 76/101/78
f 66/92/73 67/91/72 75/98/79 74/102/81
f 73/88/71 66/92/73 74/102/81 81/99/80
f 74/102/81 75/98/79 83/103/52 82/104/51
f 81/99/80 74/102/81 82/104/51 89/105/64
f 79/94/75 80/93/74 88/106/62 87/107/60
f 77/96/77 78/95/76 86/108/58 85/109/56
f 75/98/79 76/97/78 84/110/54 83/103/52
f 80/100/74 81/99/80 89/105/64 88/111/62
f 78/95/76 79/94/75 87/107/60 86/108/58
f 76/101/78 77/96/77 85/109/56 84/112/54
f 88/111/62 89/105/64 97/113/82 96/114/83
f 86/108/58 87/107/60 95/115/84 94/116/85
f 84/112/54 85/109/56 93/117/86 92/118/87
f 82/104/51 83/103/52 91/119/88 90/120/89
f 89/105/64 82/104/51 90/120/89 97/113/82
f 87/107/60 88/106/62 96/121/83 95/115/84
f 85/109/56 86/108/58 94/116/85 93/117/86
f 83/103/52 84/110/54 92/122/87 91/119/88
f 57/71/56 55/70/54 100/123/49 101/124/49
f 63/77/62 61/75/60 103/125/49 104/126/49
f 53/65/52 51/64/51 98/127/49 99/128/49
f 59/73/58 57/71/56 101/124/49 102/129/49
f 65/81/64 63/80/62 104/130/49 105/131/49
f 55/67/54 53/65/52 99/128/49 100/132/49
f 61/75/60 59/73/58 102/129/49 103/125/49
f 51/64/51 65/81/64 105/131/49 98/127/49
f 95/115/84 96/121/83 106/133/90
f 93/117/86 94/116/85 106/133/90
f 91/119/88 92/122/87 106/134/90
f 96/114/83 97/113/82 106/134/90
f 94/116/85 95/115/84 106/133/90
f 92/118/87 93/117/86 106/133/90
f 90/120/89 91/119/88 106/134/90
f 97/113/82 90/120/89 106/134/90
