# Blender v2.82 (sub 7) OBJ File: ''
# www.blender.org
mtllib player.mtl
o Sphere_Sphere.001
v 0.000000 1.300001 -0.154850
v 0.000000 1.264658 -0.000000
v -0.000000 1.978443 -0.000000
v 0.091018 1.943100 -0.125276
v 0.164010 1.844069 -0.225740
v 0.204517 1.700967 -0.281493
v 0.204517 1.542134 -0.281493
v 0.164010 1.399032 -0.225740
v 0.091018 1.300001 -0.125276
v 0.147271 1.943100 -0.047851
v 0.265373 1.844069 -0.086225
v 0.330915 1.700967 -0.107521
v 0.330915 1.542134 -0.107521
v 0.265373 1.399032 -0.086225
v 0.147271 1.300001 -0.047851
v 0.147271 1.943100 0.047851
v 0.265373 1.844069 0.086225
v 0.330915 1.700967 0.107521
v 0.330915 1.542134 0.107521
v 0.265373 1.399032 0.086225
v 0.147271 1.300001 0.047851
v 0.091018 1.943100 0.125276
v 0.164010 1.844069 0.225740
v 0.204517 1.700967 0.281493
v 0.204517 1.542134 0.281493
v 0.164010 1.399032 0.225740
v 0.091018 1.300001 0.125276
v 0.000000 1.943100 0.154850
v 0.000000 1.844069 0.279030
v -0.000000 1.700967 0.347945
v -0.000000 1.542134 0.347945
v 0.000000 1.399032 0.279030
v 0.000000 1.300001 0.154850
v -0.091018 1.943100 0.125276
v -0.164010 1.844069 0.225740
v -0.204517 1.700967 0.281493
v -0.204517 1.542134 0.281493
v -0.164010 1.399032 0.225740
v -0.091018 1.300001 0.125276
v -0.147271 1.943100 0.047851
v -0.265373 1.844069 0.086225
v -0.330915 1.700967 0.107521
v -0.330915 1.542134 0.107521
v -0.265373 1.399032 0.086225
v -0.147271 1.300001 0.047851
v -0.147271 1.943100 -0.047851
v -0.265373 1.844069 -0.086225
v -0.330915 1.700967 -0.107521
v -0.330915 1.542134 -0.107521
v -0.265373 1.399032 -0.086225
v -0.147271 1.300001 -0.047851
v -0.091018 1.943100 -0.125276
v -0.164010 1.844069 -0.225740
v -0.204517 1.700967 -0.281493
v -0.204517 1.542134 -0.281493
v -0.164010 1.399032 -0.225740
v -0.091019 1.300001 -0.125276
v 0.000000 1.943100 -0.154850
v -0.000000 1.844069 -0.279030
v -0.000000 1.700967 -0.347945
v -0.000000 1.542134 -0.347945
v -0.000000 1.399032 -0.279030
vt 0.493484 0.629415
vt 0.495769 0.668168
vt 0.446923 0.670660
vt 0.447724 0.629651
vt 0.497268 0.703879
vt 0.499553 0.742632
vt 0.454321 0.748375
vt 0.448609 0.708236
vt 0.504559 0.795450
vt 0.504113 0.925953
vt 0.469048 0.801075
vt 0.488478 0.576597
vt 0.452509 0.573963
vt 0.488925 0.446095
vt 0.414502 0.561789
vt 0.392181 0.671621
vt 0.396897 0.623710
vt 0.405547 0.761145
vt 0.394623 0.715605
vt 0.432732 0.816027
vt 0.322801 0.670813
vt 0.334275 0.607967
vt 0.348530 0.785783
vt 0.327455 0.729010
vt 0.395373 0.844036
vt 0.373090 0.535543
vt 0.359957 0.892897
vt 0.246995 0.571518
vt 0.328808 0.484225
vt 0.231654 0.757163
vt 0.220016 0.667188
vt 0.277103 0.835041
vt 0.105619 0.475769
vt 0.292269 0.380815
vt 0.064771 0.829363
vt 0.027795 0.653630
vt 0.341332 0.975548
vt 0.185412 0.946042
vt 0.928266 0.542684
vt 0.965243 0.718417
vt 0.773022 0.704859
vt 0.761383 0.614883
vt 0.887419 0.896278
vt 0.700768 0.991232
vt 0.664229 0.887822
vt 0.746042 0.800529
vt 0.651705 0.396499
vt 0.633080 0.479150
vt 0.807625 0.426004
vt 0.715934 0.537006
vt 0.597664 0.528011
vt 0.665583 0.643037
vt 0.644507 0.586264
vt 0.658763 0.764080
vt 0.670236 0.701233
vt 0.619947 0.836504
vt 0.560306 0.556020
vt 0.598414 0.656441
vt 0.587491 0.610902
vt 0.596141 0.748337
vt 0.600856 0.700426
vt 0.578535 0.810258
vt 0.545313 0.742396
vt 0.546115 0.701386
vt 0.540529 0.798084
vt 0.538717 0.623672
vt 0.523989 0.570972
vt 0.544428 0.663811
vn 0.0000 -0.6028 -0.7978
vn 0.0000 -0.2135 -0.9769
vn 0.5742 -0.2135 -0.7903
vn 0.4689 -0.6028 -0.6455
vn 0.0000 0.2135 -0.9769
vn 0.0000 0.6028 -0.7978
vn 0.4689 0.6028 -0.6455
vn 0.5742 0.2135 -0.7903
vn 0.0000 0.8834 -0.4685
vn 0.0000 1.0000 0.0000
vn 0.2754 0.8834 -0.3790
vn 0.0000 -0.8834 -0.4685
vn 0.2754 -0.8834 -0.3790
vn 0.0000 -1.0000 0.0000
vn 0.4456 -0.8834 -0.1447
vn 0.9291 -0.2135 -0.3019
vn 0.7588 -0.6028 -0.2465
vn 0.7588 0.6028 -0.2465
vn 0.9291 0.2135 -0.3019
vn 0.4456 0.8834 -0.1447
vn 0.9291 -0.2135 0.3019
vn 0.7588 -0.6028 0.2465
vn 0.7588 0.6028 0.2465
vn 0.9291 0.2135 0.3019
vn 0.4456 0.8834 0.1447
vn 0.4456 -0.8834 0.1447
vn 0.2754 0.8834 0.3790
vn 0.4689 -0.6028 0.6455
vn 0.2754 -0.8834 0.3790
vn 0.5742 0.2135 0.7903
vn 0.5742 -0.2135 0.7903
vn 0.4689 0.6028 0.6455
vn 0.0000 -0.6028 0.7978
vn 0.0000 -0.8834 0.4685
vn 0.0000 0.2135 0.9769
vn 0.0000 -0.2135 0.9769
vn 0.0000 0.8834 0.4685
vn 0.0000 0.6028 0.7978
vn -0.5742 0.2135 0.7903
vn -0.5742 -0.2135 0.7903
vn -0.2754 0.8834 0.3790
vn -0.4689 0.6028 0.6455
vn -0.2754 -0.8834 0.3790
vn -0.4689 -0.6028 0.6455
vn -0.4456 -0.8834 0.1447
vn -0.9291 -0.2135 0.3019
vn -0.7588 -0.6028 0.2465
vn -0.7588 0.6028 0.2465
vn -0.9291 0.2135 0.3019
vn -0.4456 0.8834 0.1447
vn -0.4456 -0.8834 -0.1447
vn -0.9291 -0.2135 -0.3019
vn -0.7588 -0.6028 -0.2465
vn -0.7588 0.6028 -0.2465
vn -0.9291 0.2135 -0.3019
vn -0.4456 0.8834 -0.1447
vn -0.4689 0.6028 -0.6455
vn -0.5742 0.2135 -0.7903
vn -0.2754 0.8834 -0.3790
vn -0.4689 -0.6028 -0.6455
vn -0.2754 -0.8834 -0.3790
vn -0.5742 -0.2135 -0.7903
g Sphere_Sphere.001_mat_player
usemtl mat_player
s 1
f 62/1/1 61/2/2 7/3/3 8/4/4
f 60/5/5 59/6/6 5/7/7 6/8/8
f 58/9/9 3/10/10 4/11/11
f 1/12/12 62/1/1 8/4/4 9/13/13
f 61/2/2 60/5/5 6/8/8 7/3/3
f 59/6/6 58/9/9 4/11/11 5/7/7
f 2/14/14 1/12/12 9/13/13
f 2/14/14 9/13/13 15/15/15
f 8/4/4 7/3/3 13/16/16 14/17/17
f 6/8/8 5/7/7 11/18/18 12/19/19
f 4/11/11 3/10/10 10/20/20
f 9/13/13 8/4/4 14/17/17 15/15/15
f 7/3/3 6/8/8 12/19/19 13/16/16
f 5/7/7 4/11/11 10/20/20 11/18/18
f 14/17/17 13/16/16 19/21/21 20/22/22
f 12/19/19 11/18/18 17/23/23 18/24/24
f 10/20/20 3/10/10 16/25/25
f 15/15/15 14/17/17 20/22/22 21/26/26
f 13/16/16 12/19/19 18/24/24 19/21/21
f 11/18/18 10/20/20 16/25/25 17/23/23
f 2/14/14 15/15/15 21/26/26
f 16/25/25 3/10/10 22/27/27
f 21/26/26 20/22/22 26/28/28 27/29/29
f 19/21/21 18/24/24 24/30/30 25/31/31
f 17/23/23 16/25/25 22/27/27 23/32/32
f 2/14/14 21/26/26 27/29/29
f 20/22/22 19/21/21 25/31/31 26/28/28
f 18/24/24 17/23/23 23/32/32 24/30/30
f 27/29/29 26/28/28 32/33/33 33/34/34
f 25/31/31 24/30/30 30/35/35 31/36/36
f 23/32/32 22/27/27 28/37/37 29/38/38
f 2/14/14 27/29/29 33/34/34
f 26/28/28 25/31/31 31/36/36 32/33/33
f 24/30/30 23/32/32 29/38/38 30/35/35
f 22/27/27 3/10/10 28/37/37
f 31/39/36 30/40/35 36/41/39 37/42/40
f 29/43/38 28/44/37 34/45/41 35/46/42
f 2/14/14 33/47/34 39/48/43
f 32/49/33 31/39/36 37/42/40 38/50/44
f 30/40/35 29/43/38 35/46/42 36/41/39
f 28/44/37 3/10/10 34/45/41
f 33/47/34 32/49/33 38/50/44 39/48/43
f 2/14/14 39/48/43 45/51/45
f 38/50/44 37/42/40 43/52/46 44/53/47
f 36/41/39 35/46/42 41/54/48 42/55/49
f 34/45/41 3/10/10 40/56/50
f 39/48/43 38/50/44 44/53/47 45/51/45
f 37/42/40 36/41/39 42/55/49 43/52/46
f 35/46/42 34/45/41 40/56/50 41/54/48
f 2/14/14 45/51/45 51/57/51
f 44/53/47 43/52/46 49/58/52 50/59/53
f 42/55/49 41/54/48 47/60/54 48/61/55
f 40/56/50 3/10/10 46/62/56
f 45/51/45 44/53/47 50/59/53 51/57/51
f 43/52/46 42/55/49 48/61/55 49/58/52
f 41/54/48 40/56/50 46/62/56 47/60/54
f 48/61/55 47/60/54 53/63/57 54/64/58
f 46/62/56 3/10/10 52/65/59
f 51/57/51 50/59/53 56/66/60 57/67/61
f 49/58/52 48/61/55 54/64/58 55/68/62
f 47/60/54 46/62/56 52/65/59 53/63/57
f 2/14/14 51/57/51 57/67/61
f 50/59/53 49/58/52 55/68/62 56/66/60
f 57/67/61 56/66/60 62/1/1 1/12/12
f 55/68/62 54/64/58 60/5/5 61/2/2
f 53/63/57 52/65/59 58/9/9 59/6/6
f 2/14/14 57/67/61 1/12/12
f 56/66/60 55/68/62 61/2/2 62/1/1
f 54/64/58 53/63/57 59/6/6 60/5/5
f 52/65/59 3/10/10 58/9/9
o Cube_Cube.001
v -0.166349 0.017201 0.136872
v -0.166349 1.413643 0.136872
v -0.166349 0.017201 -0.136872
v -0.166349 1.413643 -0.136872
v 0.166349 0.017201 0.136872
v 0.166349 1.413643 0.136872
v 0.166349 0.017201 -0.136872
v 0.166349 1.413643 -0.136872
vt 0.227974 0.278895
vt 0.227974 0.169235
vt 0.337634 0.169235
vt 0.337634 0.278895
vt 0.447293 0.169235
vt 0.447293 0.278895
vt 0.556953 0.169235
vt 0.556953 0.278895
vt 0.666613 0.169235
vt 0.666613 0.278895
vt 0.447293 0.388555
vt 0.556953 0.388555
vt 0.447293 0.059576
vt 0.556953 0.059576
vn -0.5773 -0.5773 0.5773
vn -0.5773 0.5773 0.5773
vn -0.5773 0.5773 -0.5773
vn -0.5773 -0.5773 -0.5773
vn 0.5773 0.5773 -0.5773
vn 0.5773 -0.5773 -0.5773
vn 0.5773 0.5773 0.5773
vn 0.5773 -0.5773 0.5773
g Cube_Cube.001_mat_player
usemtl mat_player
s 1
f 63/69/63 64/70/64 66/71/65 65/72/66
f 65/72/66 66/71/65 70/73/67 69/74/68
f 69/74/68 70/73/67 68/75/69 67/76/70
f 67/76/70 68/75/69 64/77/64 63/78/63
f 65/79/66 69/74/68 67/76/70 63/80/63
f 70/73/67 66/81/65 64/82/64 68/75/69
